<svg width="75" height="67" viewBox="0 0 75 67" fill="none" xmlns="http://www.w3.org/2000/svg">
<rect x="0.751953" y="0.0991211" width="73.2578" height="66.2806" rx="10" fill="#172656"/>
<path d="M53.6785 22.1536H52.3352V19.6543C52.3352 18.7701 51.9952 17.937 51.3661 17.3079C50.7369 16.6788 49.9038 16.3218 49.0026 16.3218H37.8653C37.2022 16.3218 36.5731 16.5768 36.097 17.0529L19.4506 33.6983C18.8215 34.3274 18.4814 35.1606 18.4814 36.0447C18.4814 36.9288 18.8215 37.7619 19.4506 38.391L30.2478 49.1876C30.8769 49.8167 31.7101 50.1568 32.5943 50.1568C33.4785 50.1568 34.3116 49.8167 34.9408 49.1876L45.4149 38.7141C45.7549 38.374 45.7549 37.83 45.4149 37.4899C45.0748 37.1499 44.5307 37.1499 44.1906 37.4899L33.7165 47.9635C33.4104 48.2695 33.0194 48.4395 32.5773 48.4395C32.1352 48.4395 31.7441 48.2695 31.438 47.9635L20.6409 37.1669C20.3348 36.8608 20.1648 36.4698 20.1648 36.0277C20.1648 35.5856 20.3348 35.1946 20.6409 34.8885L37.2872 18.2431C37.4403 18.09 37.6273 18.022 37.8313 18.022H48.9686C49.3937 18.022 49.8017 18.1921 50.1078 18.4981C50.4139 18.8041 50.5839 19.1952 50.5839 19.6373V25.6562H47.4043C47.2342 25.6562 47.0642 25.6052 46.9112 25.5031C47.1662 25.3671 47.4043 25.1971 47.6083 24.9931C48.1354 24.466 48.4415 23.7519 48.4415 22.9868C48.4415 22.2217 48.1524 21.5245 47.6083 20.9805C47.0812 20.4534 46.367 20.1473 45.6019 20.1473C44.8367 20.1473 44.1396 20.4364 43.5955 20.9805C43.0684 21.5075 42.7623 22.2217 42.7623 22.9868C42.7623 23.7519 43.0514 24.449 43.5955 24.9931C43.9696 25.3671 44.4457 25.6392 44.9728 25.7582C45.3808 26.7273 46.35 27.3734 47.4043 27.3734H50.5839V30.7569C50.5839 30.9609 50.4989 31.165 50.3628 31.301L48.3564 33.3073C48.1864 33.4773 48.1014 33.6813 48.1014 33.9194C48.1014 34.1574 48.1864 34.3614 48.3564 34.5315C48.5265 34.7015 48.7305 34.7865 48.9686 34.7865C49.2066 34.7865 49.4107 34.7015 49.5807 34.5315L51.5871 32.5252C52.0632 32.0491 52.3182 31.42 52.3182 30.7569V27.3734H53.6615C55.1068 27.3734 56.28 26.2002 56.28 24.755C56.28 23.3098 55.1238 22.1536 53.6785 22.1536ZM54.5797 24.772C54.5797 25.2651 54.1716 25.6732 53.6785 25.6732H52.3352V23.8709H53.6785C54.1716 23.8709 54.5797 24.279 54.5797 24.772ZM46.5031 22.3237C45.7889 22.5957 45.2278 23.1738 44.9558 23.8879C44.9218 23.8539 44.8707 23.8199 44.8367 23.7859C44.6327 23.5819 44.5137 23.2928 44.5137 23.0038C44.5137 22.7147 44.6327 22.4257 44.8367 22.2217C45.0408 22.0176 45.3298 21.8986 45.6189 21.8986C45.908 21.8986 46.197 22.0176 46.4011 22.2217C46.4521 22.2557 46.4691 22.2897 46.5031 22.3237Z" fill="#3A86FF"/>
<path d="M35.2979 39.0542C35.723 39.0542 36.1311 38.8842 36.4372 38.5781C36.7432 38.2721 36.9133 37.881 36.9133 37.439C36.9133 37.0139 36.7432 36.6058 36.4372 36.2998C36.1311 35.9938 35.74 35.8237 35.2979 35.8237C34.8729 35.8237 34.4648 35.9938 34.1587 36.2998C33.8527 36.6058 33.6826 36.9969 33.6826 37.439C33.6826 37.881 33.8527 38.2721 34.1587 38.5781C34.4648 38.8842 34.8729 39.0542 35.2979 39.0542Z" fill="#3A86FF"/>
<path d="M36.7942 31.1651C37.4234 30.536 37.4234 29.5159 36.7942 28.9038C36.4882 28.5978 36.0971 28.4277 35.655 28.4277C35.2299 28.4277 34.8219 28.5978 34.5158 28.9038C33.8867 29.5329 33.8867 30.553 34.5158 31.1651C34.8219 31.4712 35.2299 31.6242 35.655 31.6242C36.0801 31.6242 36.4882 31.4712 36.7942 31.1651Z" fill="#3A86FF"/>
<path d="M26.252 33.9534C26.252 33.7323 26.167 33.5113 25.997 33.3413C25.6739 33.0182 25.1128 33.0182 24.7727 33.3413L22.6813 35.4326C22.5283 35.5856 22.4263 35.8066 22.4263 36.0447C22.4263 36.2827 22.5113 36.4867 22.6813 36.6568L31.9822 45.9571C32.1522 46.1272 32.3563 46.2122 32.5943 46.2122C32.8324 46.2122 33.0364 46.1272 33.2064 45.9571L47.1152 32.0491C47.4553 31.709 47.4553 31.1649 47.1152 30.8249L37.8144 21.5245C37.4913 21.2015 36.9132 21.2015 36.5901 21.5245L28.9216 29.1926C28.5815 29.5327 28.5815 30.0768 28.9216 30.4168C29.2616 30.7569 29.8058 30.7569 30.1458 30.4168L37.2022 23.3438L44.1056 30.2468L25.0278 35.5176L25.98 34.5654C26.15 34.4124 26.252 34.1914 26.252 33.9534ZM25.6229 37.1498L44.9048 31.828L32.6113 44.1209L25.6229 37.1498Z" fill="#3A86FF"/>
<path d="M46.2819 35.4156C46.1289 35.5686 46.0269 35.8066 46.0269 36.0277C46.0269 36.2487 46.1119 36.4697 46.2819 36.6397C46.4349 36.7928 46.656 36.8948 46.894 36.8948C47.1151 36.8948 47.3361 36.8098 47.5061 36.6397C47.6592 36.4867 47.7612 36.2487 47.7612 36.0277C47.7612 35.8066 47.6762 35.5856 47.5061 35.4156C47.1831 35.1095 46.605 35.1095 46.2819 35.4156Z" fill="#3A86FF"/>
<path d="M28.0711 32.4914C28.2241 32.3383 28.3261 32.1173 28.3261 31.8793C28.3261 31.6582 28.2411 31.4372 28.0711 31.2672C27.748 30.9441 27.1699 30.9441 26.8468 31.2672C26.6938 31.4372 26.5918 31.6582 26.5918 31.8793C26.5918 32.1003 26.6768 32.3213 26.8468 32.4914C26.9999 32.6444 27.2379 32.7464 27.459 32.7464C27.68 32.7464 27.9011 32.6614 28.0711 32.4914Z" fill="#3A86FF"/>
</svg>
