<svg width="74" height="68" viewBox="0 0 74 68" fill="none" xmlns="http://www.w3.org/2000/svg">
<rect x="0.71875" y="0.737793" width="73.2578" height="66.2806" rx="10" fill="#3E0B39"/>
<path d="M50.5907 24.7148L44.1549 18.4055C43.9968 18.2316 43.7596 18.1367 43.5224 18.1367H27.267C25.3695 18.1367 23.8198 19.6864 23.8198 21.5839V46.1726C23.8198 48.0701 25.3695 49.6197 27.267 49.6197H47.4281C49.3256 49.6197 50.8753 48.0701 50.8753 46.1726V25.3789C50.8753 25.1259 50.7646 24.8887 50.5907 24.7148ZM44.4395 21.2518L47.6969 24.446H44.74C44.5818 24.446 44.4395 24.3195 44.4395 24.1455V21.2518V21.2518ZM49.0252 46.1726C49.0252 47.0581 48.3136 47.7697 47.4281 47.7697H27.267C26.3815 47.7697 25.6699 47.0581 25.6699 46.1726V21.5839C25.6699 20.6984 26.3815 19.9868 27.267 19.9868H42.6053V24.1613C42.6053 25.3473 43.5698 26.2961 44.74 26.2961H49.0252V46.1726V46.1726Z" fill="#FF006E"/>
<path d="M43.7438 32.7632H30.7457C30.2397 32.7632 29.8286 33.1743 29.8286 33.6803C29.8286 34.1863 30.2397 34.5975 30.7457 34.5975H43.7438C44.2498 34.5975 44.6609 34.1863 44.6609 33.6803C44.6609 33.1743 44.2498 32.7632 43.7438 32.7632Z" fill="#FF006E"/>
<path d="M30.7457 38.2976H41.3402C41.8462 38.2976 42.2574 37.8865 42.2574 37.3805C42.2574 36.8745 41.8462 36.4634 41.3402 36.4634H30.7457C30.2397 36.4634 29.8286 36.8745 29.8286 37.3805C29.8286 37.8865 30.2397 38.2976 30.7457 38.2976Z" fill="#FF006E"/>
<path d="M42.6211 40.1479H30.7457C30.2397 40.1479 29.8286 40.5591 29.8286 41.0651C29.8286 41.5711 30.2397 41.9822 30.7457 41.9822H42.6211C43.1271 41.9822 43.5382 41.5711 43.5382 41.0651C43.5382 40.5591 43.1271 40.1479 42.6211 40.1479Z" fill="#FF006E"/>
</svg>
