<svg width="140" height="139" viewBox="0 0 140 139" fill="none" xmlns="http://www.w3.org/2000/svg">
<g opacity="0.2">
<path opacity="0.2" d="M69.9998 138.949C31.8463 138.949 0.775391 107.878 0.775391 69.7244C0.775391 31.5709 31.8463 0.5 69.9998 0.5C108.153 0.5 139.224 31.5709 139.224 69.7244C139.224 107.878 108.153 138.949 69.9998 138.949ZM69.9998 11.0397C37.622 11.0397 11.315 37.3466 11.315 69.7244C11.315 102.102 37.622 128.409 69.9998 128.409C102.378 128.409 128.685 102.102 128.685 69.7244C128.685 37.3466 102.335 11.0397 69.9998 11.0397Z" fill="#3A86FF"/>
</g>
<path d="M69.9998 138.949C31.8463 138.949 0.775391 107.878 0.775391 69.7244C0.775391 31.5709 31.8463 0.5 69.9998 0.5C75.4805 0.5 80.9611 1.13238 86.2731 2.4393C89.0977 3.11383 90.8262 5.98062 90.1517 8.80525C89.4771 11.6299 86.6103 13.3584 83.7857 12.6838C79.3169 11.5877 74.6373 11.0397 69.9998 11.0397C37.622 11.0397 11.315 37.3466 11.315 69.7244C11.315 102.102 37.622 128.409 69.9998 128.409C102.378 128.409 128.685 102.102 128.685 69.7244C128.685 65.7194 128.263 61.7565 127.504 57.8779C126.914 55.0111 128.769 52.2286 131.594 51.6384C134.418 51.0482 137.243 52.9032 137.833 55.7278C138.761 60.2809 139.224 64.9605 139.224 69.6823C139.224 107.878 108.153 138.949 69.9998 138.949Z" fill="#3A86FF"/>
<path d="M65.7414 57.5412C65.7414 61.4198 62.8746 65.5513 58.9539 69.5986L50.9016 77.9881H67.0061V84.86H40.2354V79.2529L53.3889 65.3406C55.6233 63.064 57.1832 60.4923 57.1832 58.7638C57.1832 56.4872 55.4125 55.1382 52.4193 55.1382C49.426 55.1382 45.716 56.9088 42.512 59.6913L39.3501 53.5783C43.7768 50.2056 48.5828 48.182 53.6419 48.182C60.6824 48.1398 65.7414 51.8076 65.7414 57.5412Z" fill="#3A86FF"/>
<path d="M98.2042 57.7937C98.2042 60.9977 96.3492 63.8645 93.356 65.3822C97.4453 66.9842 100.059 70.4834 100.059 74.6149C100.059 81.1074 94.3678 85.1968 85.4723 85.1968C76.4925 85.1968 70.8433 81.1495 70.8433 74.6993C70.8433 70.4834 73.5836 66.9842 77.9681 65.34C74.764 63.6959 72.7404 60.7869 72.7404 57.5407C72.7404 51.7228 77.7151 48.0972 85.4723 48.0972C93.2295 48.1393 98.2042 51.8914 98.2042 57.7937ZM78.6426 73.8561C78.6426 77.1866 81.0878 78.9994 85.5145 78.9994C89.8146 78.9994 92.3863 77.1866 92.3863 73.8982C92.3863 70.6942 89.899 68.8814 85.4723 68.8814C81.0878 68.8392 78.6426 70.652 78.6426 73.8561ZM79.6123 58.2574C79.6123 61.082 81.7202 62.684 85.4723 62.684C89.1401 62.684 91.248 61.082 91.248 58.2574C91.248 55.3906 89.1823 53.7886 85.4723 53.7886C81.7623 53.7886 79.6123 55.3906 79.6123 58.2574Z" fill="#3A86FF"/>
</svg>
