<svg width="74" height="67" viewBox="0 0 74 67" fill="none" xmlns="http://www.w3.org/2000/svg">
<rect x="0.71875" y="0.0991211" width="73.2578" height="66.2806" rx="10" fill="#3E3125"/>
<path d="M54.2155 16.0825H40.1358C39.7412 16.0825 39.3825 16.3167 39.2211 16.6951C39.0776 17.0734 39.1493 17.4878 39.4363 17.7761L43.2746 21.6316L33.6789 33.4324L32.6924 31.6848C32.531 31.3965 32.244 31.2164 31.9032 31.1984C31.5804 31.1623 31.2575 31.3065 31.0602 31.5767L19.2046 46.9628C18.6307 47.7015 18.7024 48.7104 19.3481 49.377C19.7068 49.7373 20.1731 49.9175 20.6395 49.9175C21.0341 49.9175 21.4107 49.7914 21.7515 49.5392L33.643 40.4048L34.8089 42.2965C34.9703 42.5488 35.2393 42.7289 35.5263 42.765C35.8312 42.801 36.1182 42.6929 36.3334 42.4767L50.0006 28.7481L53.4981 32.2613C53.7851 32.5496 54.1976 32.6217 54.5742 32.4775C54.9509 32.3154 55.1841 31.9551 55.1841 31.5587V17.0734C55.202 16.5329 54.7715 16.0825 54.2155 16.0825ZM53.229 29.1625L50.718 26.6402C50.5387 26.46 50.2876 26.3519 50.0185 26.3519C49.7495 26.3519 49.4984 26.46 49.319 26.6402L35.8491 40.2066L34.755 38.441C34.6116 38.2068 34.3605 38.0446 34.0914 37.9906C33.8224 37.9365 33.5354 38.0086 33.3202 38.1708L21.4466 47.2871L31.7059 33.9729L32.6565 35.6665C32.818 35.9547 33.1049 36.1349 33.4278 36.1709C33.7506 36.207 34.0735 36.0628 34.2708 35.8106L45.3372 22.1901C45.6601 21.7938 45.6242 21.2172 45.2655 20.8569L42.5034 18.0643H53.229V29.1625Z" fill="#FFBE0B"/>
<path d="M30.0385 28.8202C31.3064 28.8202 32.3343 27.7877 32.3343 26.5141C32.3343 25.2405 31.3064 24.208 30.0385 24.208C28.7705 24.208 27.7427 25.2405 27.7427 26.5141C27.7427 27.7877 28.7705 28.8202 30.0385 28.8202Z" fill="#FFBE0B"/>
<path d="M32.711 24.9107C33.1953 24.9107 33.5899 24.5143 33.5899 24.0279C33.5899 23.5414 33.1953 23.1631 32.711 23.1631C32.2268 23.1631 31.8501 23.5594 31.8501 24.0459C31.8501 24.5323 32.2268 24.9107 32.711 24.9107Z" fill="#FFBE0B"/>
<path d="M44.7636 42.4589C46.0315 42.4589 47.0594 41.4264 47.0594 40.1528C47.0594 38.8792 46.0315 37.8467 44.7636 37.8467C43.4956 37.8467 42.4678 38.8792 42.4678 40.1528C42.4678 41.4264 43.4956 42.4589 44.7636 42.4589Z" fill="#FFBE0B"/>
<path d="M42.0914 41.7378C41.6071 41.7378 41.2305 42.1342 41.2305 42.6206C41.2305 43.107 41.6251 43.5034 42.0914 43.5034C42.5577 43.5034 42.9703 43.107 42.9703 42.6206C42.9703 42.1342 42.5577 41.7378 42.0914 41.7378Z" fill="#FFBE0B"/>
</svg>
